# xmcd CD database file
#
# Track frame offsets:
#	150
#	20437
#	39775
#	60475
#
# Disc length: 1072 seconds
#
# Revision: 2
# Processed by: cddbd v1.5.2PL0 Copyright (c) Steve Scherf et al.
# Submitted via: CDex 1.70beta2
#
DISCID=23042e04
DTITLE=BREAKERZ - GRAND FINALE
DYEAR=2009
DGENRE=Rock
TTITLE0=GRAND FINALE
TTITLE1=Smile In Tears
TTITLE2=ダンデライオン ～Acoustic Version～
TTITLE3=GRAND FINALE-Vocalless　Version-
EXTD=YEAR: 2009
EXTT0=
EXTT1=
EXTT2=
EXTT3=
PLAYORDER=
